<svg xmlns="http://www.w3.org/2000/svg" width="344.8" height="385.6" viewBox="0 0 344.8 385.6"><g fill="#1E1E1E"><path d="M2 206.7c0-3 .6-5.2 1.7-6.6 1.2-1.5 2.9-2.2 5.1-2.2.8 0 1.4.1 1.8.2v1.5c-.5-.2-1.1-.3-1.8-.3-1.6 0-2.8.5-3.7 1.5-.9 1-1.3 2.6-1.4 4.7h.1c.8-1.2 2-1.8 3.6-1.8 1.4 0 2.4.4 3.2 1.2.8.8 1.2 1.9 1.2 3.3 0 1.6-.4 2.8-1.3 3.7-.9.9-2 1.3-3.5 1.3-1.6 0-2.8-.6-3.7-1.8-.8-1-1.3-2.6-1.3-4.7zm5.1 5.2c1 0 1.7-.3 2.3-.9.5-.6.8-1.5.8-2.7 0-1-.3-1.8-.8-2.3-.5-.6-1.3-.9-2.2-.9-.6 0-1.2.1-1.7.4-.5.3-.9.6-1.2 1.1-.3.4-.5.9-.5 1.4 0 .7.1 1.4.4 2 .3.6.7 1.1 1.2 1.5.4.2 1 .4 1.7.4zM22.5 213.1V198h1.8v15.1h-1.8zM41.2 213.1h-2L31 200.5h-.1c.1 1.5.2 2.8.2 4.1v8.6h-1.6v-15.1h2l8.2 12.6h.1c0-.2 0-.8-.1-1.8 0-1-.1-1.7-.1-2.2v-8.6h1.6v15zM52.9 199.4c-1.7 0-3 .6-3.9 1.7-1 1.1-1.4 2.6-1.4 4.5 0 2 .5 3.5 1.4 4.6.9 1.1 2.2 1.6 4 1.6 1.1 0 2.2-.2 3.6-.6v1.5c-1 .4-2.3.6-3.9.6-2.2 0-3.9-.7-5.1-2-1.2-1.3-1.8-3.3-1.8-5.7 0-1.6.3-2.9.9-4.1.6-1.2 1.4-2.1 2.5-2.7 1.1-.6 2.4-.9 3.9-.9 1.6 0 3 .3 4.1.9l-.7 1.5c-1.3-.6-2.5-.9-3.6-.9zM72.2 213.1h-1.8V206h-7.9v7.1h-1.8V198h1.8v6.4h7.9V198h1.8v15.1zM85.8 213.1h-8.4V198h8.4v1.6h-6.6v4.9h6.2v1.5h-6.2v5.5h6.6v1.6zM98.7 209.1c0 1.3-.5 2.4-1.4 3.1-1 .7-2.3 1.1-3.9 1.1-1.8 0-3.2-.2-4.1-.7V211c.6.3 1.3.5 2 .6.7.2 1.5.2 2.2.2 1.2 0 2-.2 2.6-.7.6-.4.9-1.1.9-1.8 0-.5-.1-1-.3-1.3-.2-.3-.6-.6-1.1-.9-.5-.3-1.2-.6-2.2-1-1.4-.5-2.4-1.1-3-1.8-.6-.7-.9-1.6-.9-2.7 0-1.2.4-2.1 1.3-2.8.9-.7 2-1 3.5-1s2.9.3 4.1.8l-.5 1.5c-1.2-.5-2.5-.8-3.6-.8-.9 0-1.7.2-2.2.6-.5.4-.8 1-.8 1.7 0 .5.1 1 .3 1.3.2.3.5.6 1 .9s1.2.6 2.1.9c1.6.6 2.7 1.2 3.3 1.8.4.8.7 1.6.7 2.6z"/></g><path fill="#F4F4F4" stroke="#3B8CCB" stroke-width="3" stroke-miterlimit="10" d="M105.7 27.7h237.5V384H105.7z"/><g fill="#1E1E1E"><path d="M186.2 14.2H184v3.5h-1.7v-3.5h-7.4v-1.5l7.2-10.3h1.8v10.2h2.3v1.6zm-3.9-1.6v-5c0-1 0-2.1.1-3.4h-.1c-.3.7-.6 1.2-.9 1.7l-4.7 6.7h5.6zM196.4 17.7V2.5h1.8v15.2h-1.8zM215.2 17.7h-2L204.9 5h-.1c.1 1.5.2 2.9.2 4.1v8.6h-1.6V2.5h2l8.3 12.7h.1c0-.2 0-.8-.1-1.8 0-1-.1-1.7-.1-2.2V2.5h1.7v15.2zM227 3.9c-1.7 0-3 .6-4 1.7s-1.4 2.6-1.4 4.6c0 2 .5 3.5 1.4 4.6s2.3 1.6 4 1.6c1.1 0 2.3-.2 3.6-.6v1.5c-1.1.4-2.3.6-3.9.6-2.2 0-4-.7-5.2-2-1.2-1.4-1.8-3.3-1.8-5.8 0-1.6.3-2.9.9-4.1s1.4-2.1 2.5-2.7 2.4-1 3.9-1c1.6 0 3 .3 4.2.9l-.7 1.5c-1.2-.6-2.4-.8-3.5-.8zM246.5 17.7h-1.8v-7.1h-8v7.1h-1.8V2.5h1.8V9h8V2.5h1.8v15.2zM260.1 17.7h-8.5V2.5h8.5v1.6h-6.7V9h6.3v1.6h-6.3v5.6h6.7v1.5zM273.1 13.7c0 1.3-.5 2.4-1.5 3.1-1 .7-2.3 1.1-3.9 1.1-1.8 0-3.2-.2-4.2-.7v-1.7c.6.3 1.3.5 2 .6.7.2 1.5.2 2.2.2 1.2 0 2.1-.2 2.7-.7.6-.4.9-1.1.9-1.9 0-.5-.1-1-.3-1.3-.2-.3-.6-.6-1.1-.9-.5-.3-1.2-.6-2.3-1-1.4-.5-2.4-1.1-3-1.8-.6-.7-.9-1.6-.9-2.7 0-1.2.4-2.1 1.3-2.8.9-.7 2-1 3.5-1s2.9.3 4.2.8l-.6 1.5c-1.3-.5-2.5-.8-3.7-.8-.9 0-1.7.2-2.2.6-.5.4-.8 1-.8 1.7 0 .5.1 1 .3 1.3.2.3.5.6 1 .9.5.3 1.2.6 2.1.9 1.6.6 2.7 1.2 3.3 1.8.7.9 1 1.7 1 2.8z"/></g><path fill="none" stroke="#23577A" stroke-width="2" stroke-miterlimit="10" d="M281.2 9h62M105.7 9h61.9"/><g fill="none" stroke="#23577A" stroke-width="2" stroke-miterlimit="10"><path d="M50.4 27.7v165.1M41.2 27.7h18.3"/></g><path fill="none" stroke="#23577A" stroke-width="2" stroke-miterlimit="10" d="M105.7 0v18.3M343.2 0v18.3"/><g fill="none" stroke="#23577A" stroke-width="2" stroke-miterlimit="10"><path d="M50.4 218.8v165.1M41.2 383.9h18.3"/></g></svg>